<?xml version="1.0" encoding="UTF-8" standalone="no"?>
<svg version="1.1" xmlns="http://www.w3.org/2000/svg" xmlns:xlink="http://www.w3.org/1999/xlink" width="831.297" height="259.516">
	<g id="dp_dp001" transform="matrix(1,0,0,1,-401.423,-312.8)">
		<path id="dp_path002" fill="#312430" fill-rule="evenodd" stroke="none" stroke-width="0" d="M 756.131,489.381 C 744.824,489.381 736.327,486.395 730.637,480.404 C 724.948,474.431 722.104,466.217 722.104,455.799 C 722.104,444.101 725.927,435.141 733.588,428.884 C 741.268,422.625 753.641,419.284 770.708,418.857 L 796.007,418.448 L 796.007,412.297 C 796.007,403.141 794.051,396.564 790.175,392.617 C 786.281,388.652 780.184,386.679 771.864,386.679 C 763.473,386.679 757.357,388.101 753.553,390.945 C 749.731,393.791 747.437,398.341 746.673,404.581 L 727.1,402.804 C 730.281,382.537 745.34,372.404 772.273,372.404 C 786.424,372.404 797.091,375.657 804.237,382.145 C 811.384,388.652 814.957,398.039 814.957,410.341 L 814.957,458.928 C 814.957,464.492 815.687,468.671 817.144,471.479 C 818.601,474.305 821.375,475.711 825.481,475.711 C 827.277,475.711 829.321,475.461 831.615,474.981 L 831.615,486.644 C 826.887,487.764 822.068,488.315 817.144,488.315 C 810.193,488.315 805.144,486.484 801.98,482.839 C 798.833,479.195 797.037,473.488 796.628,465.719 L 796.007,465.719 C 791.207,474.341 785.641,480.439 779.295,484.012 C 772.948,487.585 765.215,489.381 756.131,489.381 Z M 760.415,475.319 C 767.277,475.319 773.375,473.755 778.727,470.625 C 784.06,467.479 788.273,463.195 791.367,457.719 C 794.46,452.261 796.007,446.644 796.007,440.865 L 796.007,431.568 L 775.491,431.995 C 766.691,432.137 760.007,433.044 755.473,434.715 C 750.921,436.368 747.437,438.945 745.001,442.431 C 742.584,445.915 741.357,450.465 741.357,456.101 C 741.357,462.235 743.011,466.964 746.3,470.305 C 749.607,473.648 754.3,475.319 760.415,475.319 Z "/>
		<path id="dp_path003" fill="#312430" fill-rule="evenodd" stroke="none" stroke-width="0" d="M 911.972,487.248 L 911.972,415.745 C 911.972,404.848 910.479,397.311 907.492,393.132 C 904.505,388.972 899.119,386.875 891.332,386.875 C 883.349,386.875 877.02,389.932 872.363,396.048 C 867.705,402.164 865.376,410.785 865.376,421.897 L 865.376,487.248 L 846.727,487.248 L 846.727,398.608 C 846.727,385.471 846.532,377.452 846.105,374.537 L 863.812,374.537 C 863.883,374.875 863.953,375.817 864.025,377.345 C 864.096,378.875 864.185,380.617 864.292,382.591 C 864.399,384.564 864.505,388.297 864.647,393.772 L 864.967,393.772 C 868.985,385.772 873.607,380.225 878.833,377.097 C 884.043,373.968 890.389,372.404 897.892,372.404 C 906.443,372.404 913.199,374.111 918.159,377.505 C 923.136,380.919 926.585,386.341 928.54,393.772 L 928.843,393.772 C 932.736,386.199 937.447,380.741 942.976,377.399 C 948.487,374.075 955.172,372.404 963.029,372.404 C 974.425,372.404 982.709,375.497 987.883,381.684 C 993.056,387.871 995.652,398.004 995.652,412.101 L 995.652,487.248 L 977.109,487.248 L 977.109,415.745 C 977.109,404.848 975.616,397.311 972.629,393.132 C 969.643,388.972 964.256,386.875 956.469,386.875 C 948.273,386.875 941.892,389.915 937.34,395.995 C 932.789,402.075 930.513,410.715 930.513,421.897 L 930.513,487.248 Z "/>
		<path id="dp_path004" fill="#312430" fill-rule="evenodd" stroke="none" stroke-width="0" d="M 1119.05,430.785 C 1119.05,450.519 1114.71,465.221 1106.03,474.892 C 1097.36,484.545 1084.77,489.381 1068.26,489.381 C 1051.79,489.381 1039.39,484.368 1030.98,474.324 C 1022.59,464.279 1018.39,449.755 1018.39,430.785 C 1018.39,391.871 1035.21,372.404 1068.88,372.404 C 1086.09,372.404 1098.75,377.151 1106.87,386.644 C 1114.99,396.119 1119.05,410.839 1119.05,430.785 Z M 1099.37,430.785 C 1099.37,415.212 1097.06,403.905 1092.45,396.848 C 1087.83,389.791 1080.08,386.252 1069.18,386.252 C 1058.23,386.252 1050.3,389.861 1045.41,397.044 C 1040.52,404.244 1038.07,415.497 1038.07,430.785 C 1038.07,445.665 1040.49,456.848 1045.31,464.315 C 1050.12,471.781 1057.7,475.532 1068.04,475.532 C 1079.28,475.532 1087.31,471.905 1092.13,464.688 C 1096.95,457.452 1099.37,446.145 1099.37,430.785 Z "/>
		<path id="dp_path005" fill="#312430" fill-rule="evenodd" stroke="none" stroke-width="0" d="M 1214.21,487.248 L 1214.21,415.745 C 1214.21,408.315 1213.49,402.555 1212.03,398.448 C 1210.57,394.359 1208.24,391.391 1205.06,389.595 C 1201.86,387.781 1197.18,386.875 1191,386.875 C 1181.98,386.875 1174.87,389.968 1169.66,396.155 C 1164.47,402.341 1161.86,410.928 1161.86,421.897 L 1161.86,487.248 L 1143.12,487.248 L 1143.12,398.608 C 1143.12,385.471 1142.91,377.452 1142.48,374.537 L 1160.21,374.537 C 1160.26,374.875 1160.33,375.817 1160.4,377.345 C 1160.47,378.875 1160.56,380.617 1160.67,382.591 C 1160.77,384.564 1160.9,388.297 1161.02,393.772 L 1161.34,393.772 C 1165.65,385.985 1170.62,380.475 1176.28,377.257 C 1181.93,374.021 1188.97,372.404 1197.36,372.404 C 1209.72,372.404 1218.75,375.479 1224.47,381.631 C 1230.2,387.781 1233.06,397.932 1233.06,412.101 L 1233.06,487.248 Z "/>
		<path id="dp_path006" fill="#e34a2f" fill-rule="evenodd" stroke="none" stroke-width="0" d="M 531.423,312.8 C 603.22,312.8 661.421,370.779 661.421,442.3 C 661.421,513.82 603.22,571.799 531.423,571.799 C 459.625,571.799 401.423,513.82 401.423,442.3 C 401.423,370.779 459.625,312.8 531.423,312.8 Z "/>
		<path id="dp_path007" fill="white" fill-rule="evenodd" stroke="none" stroke-width="0" d="M 596.313,442.709 L 596.313,502.199 L 573.201,502.199 L 573.201,443.532 C 573.201,429.132 568.224,415.62 558.245,402.999 C 552.179,395.353 542.468,391.532 529.112,391.532 C 509.157,391.532 495.445,401.243 487.956,420.643 C 485.823,426.153 484.756,431.599 484.756,436.932 C 484.756,445.487 487.156,453.753 491.956,461.776 C 496.756,469.776 502.979,475.155 510.624,477.932 C 518.268,480.688 524.312,482.332 528.757,482.865 C 540.668,482.865 550.891,480.065 559.424,474.465 L 559.424,497.865 C 550.179,501.932 539.957,503.976 528.757,503.976 C 509.557,503.976 493.423,497.755 480.356,485.309 C 467.289,472.888 460.756,457.153 460.756,438.132 C 460.756,413.953 470.712,394.865 490.645,380.82 C 501.845,372.999 514.491,369.087 528.535,369.087 C 550.068,369.087 566.868,376.109 578.979,390.153 C 590.535,403.309 596.313,420.843 596.313,442.709 Z "/>
	</g>
</svg>